HIERARCHY
ROOT Hips
{
	OFFSET 0.000000 87.230942 0.000000
	CHANNELS 6 Xposition Yposition Zposition Xrotation Yrotation Zrotation
	JOINT Pelvis
	{
		OFFSET 0.000000 0.000000 0.000000
		CHANNELS 3 Xrotation Yrotation Zrotation
		JOINT LeftUpLeg
		{
			OFFSET 12.017000 -9.376404 -2.439400
			CHANNELS 3 Xrotation Yrotation Zrotation
			JOINT LeftLeg
			{
				OFFSET -0.007312 -32.846973 2.110600
				CHANNELS 3 Xrotation Yrotation Zrotation
				JOINT LeftFoot
				{
					OFFSET 0.007312 -32.065170 -0.570400
					CHANNELS 3 Xrotation Yrotation Zrotation
					JOINT LeftToeBase
					{
						OFFSET 0.728300 -11.045900 13.180700
						CHANNELS 3 Xrotation Yrotation Zrotation
						End Site
						{
							OFFSET 0.000000 17.212589 0.000000
						}
					}
				}
				JOINT LeftPantLeg
				{
					OFFSET 0.002788 -16.709013 -3.143600
					CHANNELS 3 Xrotation Yrotation Zrotation
					End Site
					{
						OFFSET -0.605125 24.528742 0.000000
					}
				}
			}
			JOINT Left_Butt
			{
				OFFSET -6.630234 1.326584 -3.183700
				CHANNELS 3 Xrotation Yrotation Zrotation
				End Site
				{
					OFFSET -0.498041 20.188049 0.000000
				}
			}
		}
		JOINT RightUpLeg
		{
			OFFSET -11.717000 -9.376404 -2.439400
			CHANNELS 3 Xrotation Yrotation Zrotation
			JOINT RightLeg
			{
				OFFSET -0.003241 -32.846912 2.110600
				CHANNELS 3 Xrotation Yrotation Zrotation
				JOINT RightFoot
				{
					OFFSET 0.003241 -32.065136 -0.570500
					CHANNELS 3 Xrotation Yrotation Zrotation
					JOINT RightToeBase
					{
						OFFSET -0.728300 -11.045901 13.180700
						CHANNELS 3 Xrotation Yrotation Zrotation
						End Site
						{
							OFFSET 0.000000 17.212593 0.000000
						}
					}
				}
				JOINT RightPantLeg
				{
					OFFSET 0.008142 -16.708982 -3.143700
					CHANNELS 3 Xrotation Yrotation Zrotation
					End Site
					{
						OFFSET 0.605088 24.528715 0.000000
					}
				}
			}
			JOINT Right_Butt
			{
				OFFSET 6.630732 1.326584 -3.183700
				CHANNELS 3 Xrotation Yrotation Zrotation
				End Site
				{
					OFFSET 0.498015 20.188240 0.000000
				}
			}
		}
	}
	JOINT Spine
	{
		OFFSET -0.062400 7.848404 3.918300
		CHANNELS 3 Xrotation Yrotation Zrotation
		JOINT Spine1
		{
			OFFSET -0.072800 11.422302 0.713400
			CHANNELS 3 Xrotation Yrotation Zrotation
			JOINT Spine2
			{
				OFFSET -0.083200 13.054001 -1.931600
				CHANNELS 3 Xrotation Yrotation Zrotation
				JOINT Neck
				{
					OFFSET -0.092200 14.121796 -5.138800
					CHANNELS 3 Xrotation Yrotation Zrotation
					JOINT Head
					{
						OFFSET 0.000200 10.447403 -0.842000
						CHANNELS 3 Xrotation Yrotation Zrotation
						JOINT Visor
						{
							OFFSET 0.457100 25.671204 16.550400
							CHANNELS 3 Xrotation Yrotation Zrotation
							End Site
							{
								OFFSET 0.000000 26.061493 0.000000
							}
						}
						JOINT HairMidA
						{
							OFFSET 0.459400 31.585403 8.437400
							CHANNELS 3 Xrotation Yrotation Zrotation
							End Site
							{
								OFFSET 0.000000 26.061493 0.000000
							}
						}
						JOINT HairMidB
						{
							OFFSET 0.464000 33.309204 -8.389700
							CHANNELS 3 Xrotation Yrotation Zrotation
							End Site
							{
								OFFSET 0.000000 26.061493 0.000000
							}
						}
						JOINT HairMidC
						{
							OFFSET 0.466600 27.991196 -17.375099
							CHANNELS 3 Xrotation Yrotation Zrotation
							End Site
							{
								OFFSET 0.000000 26.061493 0.000000
							}
						}
						JOINT HairMidD
						{
							OFFSET 0.467700 17.888092 -21.169500
							CHANNELS 3 Xrotation Yrotation Zrotation
							End Site
							{
								OFFSET 0.000000 26.061493 0.000000
							}
						}
						JOINT HairMidE
						{
							OFFSET 5.325700 3.514603 -14.369699
							CHANNELS 3 Xrotation Yrotation Zrotation
							End Site
							{
								OFFSET 0.000000 26.061493 0.000000
							}
						}
						JOINT HairMidF
						{
							OFFSET -4.394100 3.514603 -14.372400
							CHANNELS 3 Xrotation Yrotation Zrotation
							End Site
							{
								OFFSET 0.000000 26.061493 0.000000
							}
						}
						JOINT HairLeftA
						{
							OFFSET 15.319900 25.746506 2.623300
							CHANNELS 3 Xrotation Yrotation Zrotation
							End Site
							{
								OFFSET 0.000000 26.061493 0.000000
							}
						}
						JOINT HairLeftB
						{
							OFFSET 12.619500 29.289398 -8.731499
							CHANNELS 3 Xrotation Yrotation Zrotation
							End Site
							{
								OFFSET 0.000000 26.061493 0.000000
							}
						}
						JOINT HairLeftC
						{
							OFFSET 15.714800 15.959900 2.909800
							CHANNELS 3 Xrotation Yrotation Zrotation
							End Site
							{
								OFFSET 0.000000 26.061493 0.000000
							}
						}
						JOINT HairLeftD
						{
							OFFSET 16.101700 18.437408 -7.553200
							CHANNELS 3 Xrotation Yrotation Zrotation
							End Site
							{
								OFFSET 0.000000 26.061493 0.000000
							}
						}
						JOINT HairLeftE
						{
							OFFSET 9.731900 17.915009 -18.316799
							CHANNELS 3 Xrotation Yrotation Zrotation
							End Site
							{
								OFFSET 0.000000 26.061493 0.000000
							}
						}
						JOINT HairLeftF
						{
							OFFSET 11.204300 4.953598 -9.668100
							CHANNELS 3 Xrotation Yrotation Zrotation
							End Site
							{
								OFFSET 0.000000 26.061493 0.000000
							}
						}
						JOINT HairRightA
						{
							OFFSET -14.397900 25.746307 2.615100
							CHANNELS 3 Xrotation Yrotation Zrotation
							End Site
							{
								OFFSET 0.000000 26.061493 0.000000
							}
						}
						JOINT HairRightB
						{
							OFFSET -11.691200 29.289200 -8.738199
							CHANNELS 3 Xrotation Yrotation Zrotation
							End Site
							{
								OFFSET 0.000000 26.061493 0.000000
							}
						}
						JOINT HairRightC
						{
							OFFSET -14.792900 15.959702 2.901400
							CHANNELS 3 Xrotation Yrotation Zrotation
							End Site
							{
								OFFSET 0.000000 26.061493 0.000000
							}
						}
						JOINT HairRightD
						{
							OFFSET -15.174000 18.437195 -7.561900
							CHANNELS 3 Xrotation Yrotation Zrotation
							End Site
							{
								OFFSET 0.000000 26.061493 0.000000
							}
						}
						JOINT HairRightE
						{
							OFFSET -8.798200 17.914902 -18.322001
							CHANNELS 3 Xrotation Yrotation Zrotation
							End Site
							{
								OFFSET 0.000000 26.061493 0.000000
							}
						}
						JOINT HairRightF
						{
							OFFSET -10.275200 4.953506 -9.674099
							CHANNELS 3 Xrotation Yrotation Zrotation
							End Site
							{
								OFFSET 0.000000 26.061493 0.000000
							}
						}
					}
				}
				JOINT LeftShoulder
				{
					OFFSET 5.133500 7.341202 -1.867600
					CHANNELS 3 Xrotation Yrotation Zrotation
					JOINT LeftArm
					{
						OFFSET 8.072663 0.936867 -2.176600
						CHANNELS 3 Xrotation Yrotation Zrotation
						JOINT LeftForeArm
						{
							OFFSET 31.271999 0.000000 0.000000
							CHANNELS 3 Xrotation Yrotation Zrotation
							JOINT LeftHand
							{
								OFFSET 31.771030 0.000000 0.000000
								CHANNELS 3 Xrotation Yrotation Zrotation
								JOINT LeftHandThumb1
								{
									OFFSET 2.886520 -2.557846 4.416638
									CHANNELS 3 Xrotation Yrotation Zrotation
									JOINT LeftHandThumb2
									{
										OFFSET 2.371025 -1.368912 1.368910
										CHANNELS 3 Xrotation Yrotation Zrotation
										JOINT LeftHandThumb3
										{
											OFFSET 2.243378 -1.295212 1.295213
											CHANNELS 3 Xrotation Yrotation Zrotation
											End Site
											{
												OFFSET -0.332611 2.876945 0.020016
											}
										}
									}
								}
								JOINT LeftHandIndex1
								{
									OFFSET 8.568985 -0.641945 3.119977
									CHANNELS 3 Xrotation Yrotation Zrotation
									JOINT LeftHandIndex2
									{
										OFFSET 3.348503 0.000000 0.000000
										CHANNELS 3 Xrotation Yrotation Zrotation
										JOINT LeftHandIndex3
										{
											OFFSET 3.314552 0.000000 0.000000
											CHANNELS 3 Xrotation Yrotation Zrotation
											End Site
											{
												OFFSET -1.032898 3.075485 0.678797
											}
										}
									}
								}
								JOINT LeftHandMiddle1
								{
									OFFSET 8.124603 0.000000 0.000000
									CHANNELS 3 Xrotation Yrotation Zrotation
									JOINT LeftHandMiddle2
									{
										OFFSET 4.166275 0.000000 0.000000
										CHANNELS 3 Xrotation Yrotation Zrotation
										JOINT LeftHandMiddle3
										{
											OFFSET 3.018135 0.000000 0.000000
											CHANNELS 3 Xrotation Yrotation Zrotation
											End Site
											{
												OFFSET -1.032700 2.767982 0.617226
											}
										}
									}
								}
								JOINT LeftHandRing1
								{
									OFFSET 8.571686 -0.031357 -2.884047
									CHANNELS 3 Xrotation Yrotation Zrotation
									JOINT LeftHandRing2
									{
										OFFSET 3.671181 0.000000 0.000000
										CHANNELS 3 Xrotation Yrotation Zrotation
										JOINT LeftHandRing3
										{
											OFFSET 2.728851 0.000000 0.000000
											CHANNELS 3 Xrotation Yrotation Zrotation
											End Site
											{
												OFFSET -0.815796 2.539223 0.577389
											}
										}
									}
								}
								JOINT LeftHandPinky1
								{
									OFFSET 7.854515 -0.675232 -5.213020
									CHANNELS 3 Xrotation Yrotation Zrotation
									JOINT LeftHandPinky2
									{
										OFFSET 3.068596 0.000000 0.000000
										CHANNELS 3 Xrotation Yrotation Zrotation
										JOINT LeftHandPinky3
										{
											OFFSET 2.396042 0.000000 0.000000
											CHANNELS 3 Xrotation Yrotation Zrotation
											End Site
											{
												OFFSET -0.524597 2.267998 0.567429
											}
										}
									}
								}
							}
							JOINT LeftSleeve
							{
								OFFSET 19.684509 -0.200119 0.476146
								CHANNELS 3 Xrotation Yrotation Zrotation
								End Site
								{
									OFFSET -0.031017 25.731133 -0.002868
								}
							}
						}
					}
				}
				JOINT RightShoulder
				{
					OFFSET -4.395900 7.341202 -1.870200
					CHANNELS 3 Xrotation Yrotation Zrotation
					JOINT RightArm
					{
						OFFSET -8.071453 0.936867 -2.181100
						CHANNELS 3 Xrotation Yrotation Zrotation
						JOINT RightForeArm
						{
							OFFSET -31.272011 0.000000 0.000000
							CHANNELS 3 Xrotation Yrotation Zrotation
							JOINT RightHand
							{
								OFFSET -31.771019 0.000000 0.000000
								CHANNELS 3 Xrotation Yrotation Zrotation
								JOINT RightHandThumb1
								{
									OFFSET -2.886520 -2.557808 4.416626
									CHANNELS 3 Xrotation Yrotation Zrotation
									JOINT RightHandThumb2
									{
										OFFSET -2.371056 -1.368927 1.368928
										CHANNELS 3 Xrotation Yrotation Zrotation
										JOINT RightHandThumb3
										{
											OFFSET -2.243362 -1.295204 1.295206
											CHANNELS 3 Xrotation Yrotation Zrotation
											End Site
											{
												OFFSET 0.332642 2.876938 0.020047
											}
										}
									}
								}
								JOINT RightHandIndex1
								{
									OFFSET -8.568993 -0.641953 3.120017
									CHANNELS 3 Xrotation Yrotation Zrotation
									JOINT RightHandIndex2
									{
										OFFSET -3.348518 0.000000 0.000000
										CHANNELS 3 Xrotation Yrotation Zrotation
										JOINT RightHandIndex3
										{
											OFFSET -3.314552 0.000000 0.000000
											CHANNELS 3 Xrotation Yrotation Zrotation
											End Site
											{
												OFFSET 1.032898 3.075478 0.678804
											}
										}
									}
								}
								JOINT RightHandMiddle1
								{
									OFFSET -8.124588 0.000000 0.000000
									CHANNELS 3 Xrotation Yrotation Zrotation
									JOINT RightHandMiddle2
									{
										OFFSET -4.166275 0.000000 0.000000
										CHANNELS 3 Xrotation Yrotation Zrotation
										JOINT RightHandMiddle3
										{
											OFFSET -3.018097 0.000000 0.000000
											CHANNELS 3 Xrotation Yrotation Zrotation
											End Site
											{
												OFFSET 1.032700 2.767937 0.617197
											}
										}
									}
								}
								JOINT RightHandRing1
								{
									OFFSET -8.571747 -0.031349 -2.884061
									CHANNELS 3 Xrotation Yrotation Zrotation
									JOINT RightHandRing2
									{
										OFFSET -3.671204 0.000000 0.000000
										CHANNELS 3 Xrotation Yrotation Zrotation
										JOINT RightHandRing3
										{
											OFFSET -2.728874 0.000000 0.000000
											CHANNELS 3 Xrotation Yrotation Zrotation
											End Site
											{
												OFFSET 0.815804 2.539261 0.577413
											}
										}
									}
								}
								JOINT RightHandPinky1
								{
									OFFSET -7.854561 -0.675247 -5.212970
									CHANNELS 3 Xrotation Yrotation Zrotation
									JOINT RightHandPinky2
									{
										OFFSET -3.068550 0.000000 0.000000
										CHANNELS 3 Xrotation Yrotation Zrotation
										JOINT RightHandPinky3
										{
											OFFSET -2.395981 0.000000 0.000000
											CHANNELS 3 Xrotation Yrotation Zrotation
											End Site
											{
												OFFSET 0.524605 2.267952 0.567413
											}
										}
									}
								}
							}
							JOINT RightSleeve
							{
								OFFSET -19.684753 -0.200165 0.476065
								CHANNELS 3 Xrotation Yrotation Zrotation
								End Site
								{
									OFFSET 0.031342 25.731255 -0.002917
								}
							}
						}
					}
				}
				JOINT Hood
				{
					OFFSET 0.369700 14.447800 -5.317800
					CHANNELS 3 Xrotation Yrotation Zrotation
					JOINT Hood1
					{
						OFFSET 0.001700 -5.553802 -5.895100
						CHANNELS 3 Xrotation Yrotation Zrotation
						JOINT Hood2
						{
							OFFSET -0.000200 -8.380501 0.763600
							CHANNELS 3 Xrotation Yrotation Zrotation
							End Site
							{
								OFFSET 0.000000 8.415215 0.000000
							}
						}
					}
				}
				JOINT Left_Breast
				{
					OFFSET 5.682500 3.120102 3.188800
					CHANNELS 3 Xrotation Yrotation Zrotation
					End Site
					{
						OFFSET 0.000000 10.528564 0.000000
					}
				}
				JOINT Right_Breast
				{
					OFFSET -4.947600 3.120102 3.185900
					CHANNELS 3 Xrotation Yrotation Zrotation
					End Site
					{
						OFFSET 0.000000 10.528564 0.000000
					}
				}
				JOINT Whistle
				{
					OFFSET 0.368200 11.471298 0.095400
					CHANNELS 3 Xrotation Yrotation Zrotation
					JOINT Whistle1
					{
						OFFSET -0.002000 -6.349899 7.479800
						CHANNELS 3 Xrotation Yrotation Zrotation
						JOINT Whistle2
						{
							OFFSET -0.001300 -8.217598 4.717600
							CHANNELS 3 Xrotation Yrotation Zrotation
							End Site
							{
								OFFSET 0.000000 9.475479 0.000000
							}
						}
					}
				}
			}
		}
		JOINT Belly
		{
			OFFSET 0.212400 1.593002 3.163700
			CHANNELS 3 Xrotation Yrotation Zrotation
			End Site
			{
				OFFSET 0.000000 7.496635 0.000000
			}
		}
	}
	JOINT FitGrandmaFacialAnim_Joint
	{
		OFFSET 1.150000 -86.211197 -1.220100
		CHANNELS 3 Xrotation Yrotation Zrotation
		End Site
		{
			OFFSET 0.000000 31.666618 0.000000
		}
	}
}
MOTION
Frames: 4
Frame Time: 0.016667
-8.071569 88.596519 -6.911924 5.728053 -7.219214 2.166254 -0.000001 0.000000 -0.000000 -30.837358 17.640239 1.024881 31.740558 6.246466 -3.068461 -6.281051 -2.412802 -2.394525 -0.000000 -0.000000 0.000000 0.000000 -0.000000 -0.000000 0.000001 -0.000000 0.000000 -10.845383 -2.184681 -0.565261 21.701910 -9.336105 -3.406444 -1.496712 11.486473 3.778127 -0.000001 -0.000001 0.000000 -0.000000 0.000001 0.000001 0.000000 0.000001 -0.000000 11.731117 3.871084 1.917550 2.136632 0.564559 -0.402174 2.133626 0.538858 -0.401992 4.167975 -0.549673 -0.814873 9.857793 -3.288566 -2.670092 0.000004 0.000000 -0.000000 0.000004 0.000000 -0.000000 0.000004 0.000000 -0.000000 0.000004 0.000000 -0.000000 0.000004 0.000000 -0.000000 0.000004 0.000000 -0.000000 0.000004 0.000000 -0.000000 0.000004 0.000000 -0.000000 0.000004 0.000000 -0.000000 0.000004 0.000000 -0.000000 0.000004 0.000000 -0.000000 0.000004 0.000000 -0.000000 0.000004 0.000000 -0.000000 0.000004 0.000000 -0.000000 0.000004 0.000000 -0.000000 0.000004 0.000000 -0.000000 0.000004 0.000000 -0.000000 0.000004 0.000000 -0.000000 0.000004 0.000000 -0.000000 1.021468 -7.973751 2.581355 29.255886 -35.262552 -57.995655 0.000003 -39.493861 -0.000006 13.792012 -3.799771 -5.174151 -1.540044 3.690201 6.142367 3.939046 7.948702 0.746815 0.000001 -0.000000 0.000000 0.321187 2.082333 -17.534931 0.554899 2.712680 -23.117311 0.000001 0.000000 -0.000001 0.067579 0.964307 -8.017396 0.785509 3.198736 -27.587201 0.000000 -0.000001 -0.000004 0.184357 1.585780 -13.261622 0.663335 2.953538 -25.310794 -0.000001 0.000001 -0.000002 0.610490 4.973431 -7.463060 0.657425 -1.134324 -25.518196 -0.000003 -0.000001 0.000002 0.000002 -0.000000 0.000000 0.710002 4.995827 -4.009016 -7.646949 25.492843 43.028996 0.000031 62.678413 -0.000053 11.181192 5.742513 -6.072324 -1.849260 -3.581784 -6.586130 4.637187 -8.634129 -0.225402 0.000002 0.000002 -0.000003 0.041671 -0.761733 6.263256 0.227041 -1.765739 14.652702 -0.000002 0.000001 -0.000002 0.041674 -0.761740 6.263251 0.227037 -1.765719 14.652713 -0.000004 0.000000 0.000001 0.041673 -0.761743 6.263254 0.227040 -1.765720 14.652709 0.000002 -0.000001 0.000005 0.041673 -0.761734 6.263250 0.227037 -1.765713 14.652702 0.000003 0.000002 0.000000 -0.000000 -0.000000 0.000003 0.000003 -0.000000 0.000000 0.000003 -0.000000 0.000000 0.000003 -0.000000 0.000000 0.000003 -0.000000 0.000000 0.000003 -0.000000 0.000000 0.000003 -0.000000 -0.000000 0.000001 0.000000 -0.000000 0.000001 0.000000 -0.000000 0.000002 -0.000000 -0.000000 -0.000001 0.000000 -0.000000 
-8.363129 88.068390 -6.740461 5.250415 -6.499498 1.652148 0.000000 0.000000 -0.000000 -26.731851 18.000402 -0.648417 21.275602 7.198949 -2.317941 -6.414819 -4.598703 -2.213162 -0.000000 -0.000001 0.000001 0.000000 -0.000000 0.000000 0.000001 0.000000 0.000000 -8.383128 -2.762183 -0.023747 22.321429 -8.950854 -3.301812 -3.975034 11.753623 2.006905 -0.000001 0.000000 0.000000 0.000001 0.000001 -0.000000 -0.000000 -0.000000 -0.000000 10.954129 3.873409 2.197654 2.242480 0.566601 -0.316927 2.239487 0.540211 -0.314408 4.357841 -0.614983 -1.244126 10.683024 -4.220901 -2.509749 0.000001 0.000001 -0.000000 0.000001 0.000001 -0.000000 0.000001 0.000001 -0.000000 0.000001 0.000001 -0.000000 0.000001 0.000001 -0.000000 0.000001 0.000001 -0.000000 0.000001 0.000001 -0.000000 0.000001 0.000001 -0.000000 0.000001 0.000001 -0.000000 0.000001 0.000001 -0.000000 0.000001 0.000001 -0.000000 0.000001 0.000001 -0.000000 0.000001 0.000001 -0.000000 0.000001 0.000001 -0.000000 0.000001 0.000001 -0.000000 0.000001 0.000001 -0.000000 0.000001 0.000001 -0.000000 0.000001 0.000001 -0.000000 0.000001 0.000001 -0.000000 1.058057 -8.143076 3.011213 29.677589 -33.731600 -59.601836 -0.000017 -44.245194 -0.000008 15.426436 -3.692224 -5.093789 -1.540043 3.690189 6.142341 3.939051 7.948708 0.746834 0.000000 0.000001 -0.000000 0.352622 2.179322 -18.381089 0.564403 2.734787 -23.316992 -0.000000 -0.000001 0.000004 0.075534 1.019206 -8.477060 0.782257 3.192523 -27.529047 -0.000000 -0.000002 0.000001 0.189127 1.605906 -13.433290 0.671564 2.970873 -25.470166 -0.000001 0.000000 -0.000002 0.650387 5.023366 -7.920872 0.686509 -1.074186 -26.071156 -0.000001 -0.000000 -0.000005 0.000003 0.000000 0.000000 0.648321 4.471222 -4.715904 -6.051049 26.494413 40.134458 0.000003 62.012585 -0.000009 10.555924 5.531260 -5.515558 -1.849249 -3.581792 -6.586139 4.637192 -8.634128 -0.225398 0.000002 -0.000000 -0.000001 0.044636 -0.788211 6.482111 0.239025 -1.810928 15.036668 0.000000 0.000002 -0.000005 0.044633 -0.788215 6.482107 0.239026 -1.810918 15.036665 -0.000001 -0.000000 0.000008 0.044637 -0.788221 6.482107 0.239023 -1.810926 15.036663 0.000002 -0.000001 -0.000003 0.044638 -0.788217 6.482106 0.239028 -1.810917 15.036667 -0.000000 0.000000 -0.000000 0.000002 0.000001 -0.000000 0.000001 -0.000000 0.000000 0.000001 -0.000000 0.000000 0.000001 -0.000000 0.000000 0.000001 -0.000000 0.000000 0.000001 -0.000000 0.000000 0.000001 -0.000000 0.000000 -0.000001 -0.000000 0.000000 -0.000001 -0.000000 0.000000 -0.000000 0.000000 -0.000000 0.000000 0.000000 -0.000000 
-8.617391 87.395432 -6.590852 4.628256 -5.916175 1.089572 0.000000 -0.000000 -0.000000 -23.743008 18.376829 -1.685034 13.433786 7.168596 -1.895610 -7.118481 -5.371797 -2.280804 0.000001 0.000001 -0.000001 -0.000000 -0.000001 -0.000000 0.000000 -0.000001 0.000000 -6.290534 -3.443969 0.248655 22.989846 -7.944417 -3.067400 -7.813507 12.040233 2.100563 0.000000 0.000000 0.000000 -0.000001 -0.000001 0.000000 0.000000 -0.000001 0.000000 10.301758 3.965411 2.553337 2.249693 0.582010 -0.333869 2.248527 0.553270 -0.328901 4.625057 -0.660304 -1.638076 11.320622 -5.047495 -2.164711 0.000000 0.000000 0.000000 0.000000 0.000000 0.000000 0.000000 0.000000 0.000000 0.000000 0.000000 0.000000 0.000000 0.000000 0.000000 0.000000 0.000000 0.000000 0.000000 0.000000 0.000000 0.000000 0.000000 0.000000 0.000000 0.000000 0.000000 0.000000 0.000000 0.000000 0.000000 0.000000 0.000000 0.000000 0.000000 0.000000 0.000000 0.000000 0.000000 0.000000 0.000000 0.000000 0.000000 0.000000 0.000000 0.000000 0.000000 0.000000 0.000000 0.000000 0.000000 0.000000 0.000000 0.000000 0.000000 0.000000 0.000000 1.075242 -8.132704 3.400379 29.893143 -32.154686 -61.158026 -0.000003 -48.068645 -0.000001 15.678284 -2.976438 -4.489452 -1.540030 3.690180 6.142339 3.939046 7.948707 0.746807 -0.000001 -0.000001 0.000000 0.359077 2.198553 -18.549342 0.544905 2.689213 -22.905407 0.000002 0.000002 0.000001 0.078034 1.035805 -8.616564 0.743107 3.116387 -26.817665 -0.000000 -0.000001 -0.000003 0.183709 1.583042 -13.238272 0.646032 2.916704 -24.972862 -0.000000 -0.000002 -0.000001 0.662254 5.038093 -8.056304 0.678947 -1.089654 -25.928621 0.000001 -0.000002 -0.000003 -0.000002 -0.000000 0.000000 0.573258 3.893906 -5.269793 -4.457520 27.836643 37.073003 -0.000017 60.417900 0.000001 10.398787 5.760360 -4.809111 -1.849251 -3.581766 -6.586136 4.637192 -8.634132 -0.225406 -0.000002 0.000001 -0.000001 0.046713 -0.806248 6.631290 0.251921 -1.858263 15.439627 -0.000000 0.000002 -0.000003 0.046708 -0.806250 6.631287 0.251922 -1.858250 15.439636 -0.000003 -0.000001 0.000001 0.046707 -0.806264 6.631283 0.251929 -1.858258 15.439629 0.000000 0.000002 -0.000004 0.046711 -0.806267 6.631283 0.251927 -1.858235 15.439631 -0.000001 0.000002 -0.000001 -0.000001 0.000000 0.000001 -0.000001 0.000000 0.000000 -0.000001 0.000000 0.000000 -0.000001 0.000000 0.000000 -0.000001 0.000000 0.000000 -0.000001 0.000000 0.000000 -0.000001 0.000000 0.000000 -0.000001 -0.000000 0.000000 -0.000001 -0.000000 0.000000 -0.000002 0.000000 0.000000 0.000000 -0.000000 -0.000000 
-8.838950 86.633286 -6.493283 3.994460 -5.560246 0.489218 -0.000000 -0.000000 -0.000000 -23.560200 18.429025 -1.479747 11.864934 6.529429 -1.985915 -10.661519 -4.473428 -2.789140 -0.000000 -0.000000 -0.000001 -0.000001 0.000002 -0.000001 -0.000001 0.000001 -0.000001 -4.077280 -4.276174 0.439599 22.595164 -6.194549 -2.292392 -11.965548 11.752284 1.851538 -0.000001 -0.000000 0.000000 0.000000 0.000001 -0.000000 -0.000000 0.000000 0.000000 9.966256 4.253015 3.146246 2.136563 0.619873 -0.512252 2.139735 0.587452 -0.505922 4.969259 -0.726725 -1.876553 11.625603 -5.763230 -1.781477 -0.000001 0.000000 -0.000000 -0.000001 0.000000 -0.000000 -0.000001 0.000000 -0.000000 -0.000001 0.000000 -0.000000 -0.000001 0.000000 -0.000000 -0.000001 0.000000 -0.000000 -0.000001 0.000000 -0.000000 -0.000001 0.000000 -0.000000 -0.000001 0.000000 -0.000000 -0.000001 0.000000 -0.000000 -0.000001 0.000000 -0.000000 -0.000001 0.000000 -0.000000 -0.000001 0.000000 -0.000000 -0.000001 0.000000 -0.000000 -0.000001 0.000000 -0.000000 -0.000001 0.000000 -0.000000 -0.000001 0.000000 -0.000000 -0.000001 0.000000 -0.000000 -0.000001 0.000000 -0.000000 1.053473 -7.853779 3.651534 29.852353 -30.999531 -62.395800 -0.000015 -51.156594 -0.000019 14.691670 -1.394713 -3.558500 -1.540023 3.690189 6.142357 3.939030 7.948709 0.746828 -0.000000 -0.000000 -0.000000 0.345883 2.158895 -18.202512 0.504736 2.592203 -22.033828 0.000002 0.000001 -0.000001 0.076159 1.023377 -8.512312 0.679175 2.986779 -25.616959 -0.000001 0.000000 -0.000002 0.170913 1.527656 -12.766911 0.596532 2.808121 -23.981846 -0.000001 0.000000 -0.000002 0.652615 5.026153 -7.946345 0.644057 -1.162481 -25.260054 0.000000 0.000001 -0.000002 -0.000004 -0.000001 0.000000 0.479802 3.203784 -5.615969 -3.146414 29.391824 34.115586 -0.000010 57.855862 0.000010 10.735878 6.483040 -3.909219 -1.849257 -3.581799 -6.586141 4.637189 -8.634111 -0.225391 0.000001 0.000001 0.000001 0.048169 -0.818768 6.734406 0.267138 -1.912435 15.902023 -0.000000 0.000002 -0.000003 0.048172 -0.818774 6.734398 0.267136 -1.912425 15.902031 -0.000001 -0.000001 0.000002 0.048170 -0.818761 6.734403 0.267134 -1.912450 15.902017 -0.000001 -0.000002 0.000004 0.048171 -0.818760 6.734404 0.267138 -1.912429 15.902023 -0.000001 -0.000002 0.000000 0.000002 -0.000001 0.000002 0.000002 0.000000 0.000000 0.000002 0.000000 0.000000 0.000002 0.000000 0.000000 0.000002 0.000000 0.000000 0.000002 0.000000 0.000000 0.000002 0.000000 0.000000 0.000001 0.000000 0.000000 0.000001 0.000000 0.000000 0.000001 0.000000 -0.000001 -0.000000 -0.000000 -0.000000 
